# xmcd CD database file
#
# Track frame offsets:
#	150
#	16372
#	26407
#	39660
#	56200
#	68082
#	81517
#	94627
#	104630
#	119232
#	132967
#	144132
#	161300
#	175765
#	196025
#	215827
#
# Disc length: 3092 seconds
#
# Revision: 0
# Processed by: cddbd v1.5.1PL2 Copyright (c) Steve Scherf et al.
# Submitted via: CDex 1.51
#
DISCID=e20c1210
DTITLE=Billie Holiday - Billie Holiday
DYEAR=1996
DGENRE=Jazz
TTITLE0=Cheek to Cheek
TTITLE1=Too Marvellous For Words
TTITLE2=I've Got my Love to Keep Me Warm
TTITLE3=Our Love is Here to Stay
TTITLE4=Let's Call the Whole Thing Off
TTITLE5=Body and Soul
TTITLE6=Summertime
TTITLE7=Trav'lin' All Alone
TTITLE8=Say It Isn't So
TTITLE9=April in Paris
TTITLE10=I Cried for You
TTITLE11=But Not For Me
TTITLE12=Easy to Love
TTITLE13=Stars Fell on Alabama
TTITLE14=Speak Low
TTITLE15=A Fine Romance
EXTD=YEAR: 1996
EXTT0=
EXTT1=
EXTT2=
EXTT3=
EXTT4=
EXTT5=
EXTT6=
EXTT7=
EXTT8=
EXTT9=
EXTT10=
EXTT11=
EXTT12=
EXTT13=
EXTT14=
EXTT15=
PLAYORDER=
